<svg xmlns="http://www.w3.org/2000/svg" width="682.667" height="682.667" preserveAspectRatio="xMidYMid meet" version="1.0" viewBox="0 0 512 512"><metadata>Created by potrace 1.11, written by Peter Selinger 2001-2013</metadata><g fill="#000" stroke="none"><path d="M1608 3592 l-947 -516 942 -514 c518 -283 947 -514 952 -514 6 0 350 185 765 412 415 227 763 415 773 418 16 4 17 -29 17 -587 l0 -591 170 0 170 0 0 688 0 688 -942 514 c-519 282 -945 514 -948 516 -3 1 -432 -230 -952 -514z" transform="translate(0.000000,512.000000) scale(0.100000,-0.100000)"/><path d="M1352 2008 l3 -342 500 -274 c275 -150 545 -298 600 -327 l100 -54 600 327 600 327 3 343 c1 188 0 342 -3 342 -3 0 -273 -146 -601 -325 -327 -179 -597 -325 -599 -325 -2 0 -272 146 -599 325 -328 179 -598 325 -601 325 -3 0 -4 -154 -3 -342z" transform="translate(0.000000,512.000000) scale(0.100000,-0.100000)"/></g></svg>